inDegrees=no
num_controls=7
num_derivatives=13
num_iterations=118
num_multipliers=7
num_parameters=0
num_slacks=7
num_states=26
objective=5.914338
objective_accelerations=1.018070
objective_balance=0.026754
objective_effort=0.678659
objective_height=4.136502
objective_ligament=0.054353
solver_duration=1190.760270
status=Solve_Succeeded
success=true
DataType=double
version=3
OpenSimVersion=4.4-2022-07-23-0e9fedc
endheader
time	/jointset/ground_pelvis/pelvis_tilt/value	/jointset/ground_pelvis/pelvis_tx/value	/jointset/ground_pelvis/pelvis_ty/value	/jointset/hip_l/hip_flexion_l/value	/jointset/hip_l/hip_adduction_l/value	/jointset/hip_l/hip_rotation_l/value	/jointset/back/lumbar_extension/value	/jointset/patellofemoral_l/patellar_flexion_l/value	/jointset/knee_l/knee_flexion_l/value	/jointset/knee_l/knee_adduction_l/value	/jointset/knee_l/knee_rotation_l/value	/jointset/ankle_l/ankle_angle_l/value	/jointset/subtalar_l/subtalar_angle_l/value	/jointset/ground_pelvis/pelvis_tilt/speed	/jointset/ground_pelvis/pelvis_tx/speed	/jointset/ground_pelvis/pelvis_ty/speed	/jointset/hip_l/hip_flexion_l/speed	/jointset/hip_l/hip_adduction_l/speed	/jointset/hip_l/hip_rotation_l/speed	/jointset/back/lumbar_extension/speed	/jointset/patellofemoral_l/patellar_flexion_l/speed	/jointset/knee_l/knee_flexion_l/speed	/jointset/knee_l/knee_adduction_l/speed	/jointset/knee_l/knee_rotation_l/speed	/jointset/ankle_l/ankle_angle_l/speed	/jointset/subtalar_l/subtalar_angle_l/speed	/forceset/tau_hip_flexion_l	/forceset/tau_hip_adduction_l	/forceset/tau_hip_rotation_l	/forceset/tau_knee_flexion_l	/forceset/tau_ankle_angle_l	/forceset/tau_subtalar_angle_l	/forceset/tau_lumbar_extension	lambda_cid13_p0	lambda_cid13_p1	lambda_cid13_p2	lambda_cid13_p3	lambda_cid13_p4	lambda_cid13_p5	lambda_cid14_p0	/jointset/ground_pelvis/pelvis_tilt/accel	/jointset/ground_pelvis/pelvis_tx/accel	/jointset/ground_pelvis/pelvis_ty/accel	/jointset/hip_l/hip_flexion_l/accel	/jointset/hip_l/hip_adduction_l/accel	/jointset/hip_l/hip_rotation_l/accel	/jointset/back/lumbar_extension/accel	/jointset/patellofemoral_l/patellar_flexion_l/accel	/jointset/knee_l/knee_flexion_l/accel	/jointset/knee_l/knee_adduction_l/accel	/jointset/knee_l/knee_rotation_l/accel	/jointset/ankle_l/ankle_angle_l/accel	/jointset/subtalar_l/subtalar_angle_l/accel	gamma_cid13_p0	gamma_cid13_p1	gamma_cid13_p2	gamma_cid13_p3	gamma_cid13_p4	gamma_cid13_p5	gamma_cid14_p0
0.5	-0.1437891617514018	-0.09672784186653606	0.6859412159017192	1.369213452995544	-0.3075949024498879	-0.03297989158368844	-0.8455143678111123	1.311527485468934	1.311527485468953	0.03108906613053684	-0.1745322176791244	0.1836744685965277	0.05216249646842756	-0.099729232774219	-0.1599769788625163	-0.8942536382570193	2.703876191790875	0.01734827151138692	0.5599907363275344	-0.7797703121955516	2.804261446957534	2.804261446957534	0.5038991301408781	1.049130914685635e-05	0.3819130520723743	0.168061850978438	-0.3356111804279222	-0.00766328278091456	-0.01680496666354232	-0.3342462814325395	0.174578031765498	0.04327253037048893	0.3866433030676311	12.19341112227476	-17.60442604077102	-1.444272902373287	-31.22187897548345	-709.5913985096349	-68.22234907043419	-0.04300129702991238	1.683381867937306	1.493464230436171	-0.3884395326804992	-2.394694119932395	0.1523297111497409	-0.6840579251553611	2.883836279721678	-2.095732291547368	-2.095732291547284	-0.4165723276060358	0.04525919662435435	-1.591305931001209	-0.3610875437529515	-1.22026552019327e-07	-1.616300437733933e-06	-1.129384582877678e-07	-4.995330797131648e-07	-2.925957131110261e-07	2.297196833280822e-07	-3.040896916847998e-07
0.51	-0.1447021682279543	-0.0982530216958957	0.6769813798050748	1.396129751506544	-0.3074147715843193	-0.02741513312933112	-0.8531671299185448	1.339461618301993	1.339461618302011	0.036106276738801	-0.1745317801695628	0.1874125914984782	0.05382318788416626	-0.08283219181724931	-0.1450677522077152	-0.8974851960311493	2.679051182084472	0.0186723926992805	0.552939833021177	-0.7507501138729875	2.782192653064059	2.782192653064053	0.4995065152762345	6.303661821336789e-05	0.365616859588874	0.1640171740692937	-0.3432129442329099	-0.009142059182869018	-0.01751961527951437	-0.3427232412865275	0.1770381474856924	0.04251516814902497	0.3949644830924987	12.36431630838417	-17.10610315789681	-1.75139587565518	-31.3632646182299	-718.9591770143139	-68.03136469328713	-0.0428892997789897	1.698805728737846	1.488241112916141	-0.2563053093507166	-2.576289604829473	0.1217196839722507	-0.7190367893421139	2.915910921106312	-2.318269500301897	-2.318269500302658	-0.4563454228750169	-0.01683008286090315	-1.6630286633837	-0.434840162374531	-5.208340373699136e-08	-1.277464014893831e-06	-1.065813988751392e-07	-5.008718365206033e-07	-2.347915500887312e-07	2.010358302451925e-07	-2.43301340165446e-07
0.52	-0.1454450161911164	-0.09962939141272392	0.667996069848775	1.42278782287868	-0.3072215462346121	-0.02192156975921228	-0.8605287301802398	1.367163899883707	1.367163899883738	0.04107841332707479	-0.1745312336624063	0.1909849019243197	0.05544169605123864	-0.06569753009385249	-0.1302149563562336	-0.8993484101881449	2.652230764024666	0.01996716834172513	0.5457517194761647	-0.721537943047141	2.757891196688414	2.757891196688403	0.494884326132312	3.229069092704151e-05	0.3487505568510055	0.1596252012449757	-0.3508147080379949	-0.01062083558487256	-0.01823426389540276	-0.3512002011405139	0.1794982632058919	0.04175780592750374	0.403285663117278	12.51726529194045	-16.60426523601681	-2.059503270599387	-31.52777908024069	-728.5985637872942	-67.89759101012538	-0.04271141436062396	1.730906021222496	1.482178069772454	-0.1147708092536085	-2.793775790613002	0.146460602059646	-0.7114999728866885	2.922230780378026	-2.542264787981147	-2.542264787981177	-0.4624871834620536	0.02860094935302094	-1.70532798187461	-0.4305467267880885	4.965760923754051e-09	-1.208793046179918e-06	-3.569069572082601e-07	-5.431337573191876e-07	-2.124917766930573e-07	6.841560599448891e-09	-1.951545967241831e-07
0.53	-0.1460156416644922	-0.1008576140939611	0.6589989751501566	1.449168011134833	-0.3070152989221751	-0.01650061489459264	-0.8675974207296295	1.394612259930501	1.394612259930519	0.04600361684604014	-0.1745310398217343	0.1943860645004256	0.0570149402577759	-0.04841613448757665	-0.1154479095979373	-0.8998394748090025	2.623488265004762	0.02128172768919107	0.5384371879459334	-0.692190650604503	2.731426463464746	2.731426463464695	0.4901060634240819	8.681350124719535e-06	0.3314206209382335	0.1549827217640182	-0.3576055993498469	-0.01217540988019757	-0.01898427572675438	-0.3595649389684168	0.1820659606854135	0.04081166826875809	0.410869323582093	12.72465326833151	-16.01728310421871	-2.395680624888938	-31.63873018159536	-737.7006206399125	-67.59123877764438	-0.04246629322681764	1.728439891758124	1.471105456804438	0.01834376485139219	-2.962304717766725	0.124007018553817	-0.741916528313576	2.942405910038705	-2.75169599739869	-2.751695997404497	-0.4932552300803532	-0.01761025857085938	-1.756067575735887	-0.48699344863352	5.496547798618803e-08	-1.156030829456654e-06	-5.909377951561104e-07	-5.802500662561293e-07	-1.971555339419414e-07	-1.943002004943724e-07	-1.510932464008193e-07
